# xmcd
#
# Track frame offsets: 
#        150
#        8455
#        26365
#        46765
#        64816
#        83056
#        102151
#        122471
#        142858
#        148674
#        172214
#        193024
#        210112
#        226430
#
# Disc length: 3259 seconds
#
# Revision: 31
# Processed by: cddbd v1.5.2PL0 Copyright (c) Steve Scherf et al.
# Submitted via: ExactAudioCopyFreeDBPlugin 1.0
#
DISCID=ab0cb90e
DTITLE=宇多田∣Hikaru Utada - Exodus
DYEAR=2004
DGENRE=Misc
TTITLE0=Opening
TTITLE1=Devil Inside
TTITLE2=Exodus '04
TTITLE3=The Workout
TTITLE4=Easy Breezy
TTITLE5=Tippy Toe
TTITLE6=Hotel Lobby
TTITLE7=Animato
TTITLE8=Crossover Interlude
TTITLE9=Kremlin Dusk
TTITLE10=You Make Me Want To Be A Man
TTITLE11=Wonder 'Bout
TTITLE12=Let Me Give You My Love
TTITLE13=About Me
EXTD=YEAR: 2004
EXTT0=
EXTT1=
EXTT2=
EXTT3=
EXTT4=
EXTT5=
EXTT6=
EXTT7=
EXTT8=
EXTT9=
EXTT10=
EXTT11=
EXTT12=
EXTT13=
PLAYORDER=
